<svg width="149" height="36" viewBox="0 0 149 36" fill="none" xmlns="http://www.w3.org/2000/svg">
<path d="M52.9883 23H42.4287V7.5957H52.9883V10.6787H45.5117V13.7617H50.5713V16.8447H45.5117V19.917H52.9883V23ZM63.6123 13.7617V16.6836H54.5889V13.7617H63.6123ZM81.4551 15.3623C81.4551 16.0928 81.3584 16.7982 81.165 17.4785C80.9788 18.1517 80.7139 18.7855 80.3701 19.3799C80.0264 19.9671 79.611 20.5042 79.124 20.9912C78.637 21.4782 78.0999 21.8971 77.5127 22.248C76.9255 22.5918 76.2917 22.8568 75.6113 23.043C74.931 23.2363 74.2256 23.333 73.4951 23.333C72.7646 23.333 72.0592 23.2363 71.3789 23.043C70.7057 22.8568 70.0719 22.5918 69.4775 22.248C68.8903 21.8971 68.3532 21.4782 67.8662 20.9912C67.3792 20.5042 66.9603 19.9671 66.6094 19.3799C66.2656 18.7855 65.9971 18.1517 65.8037 17.4785C65.6175 16.7982 65.5244 16.0928 65.5244 15.3623C65.5244 14.6318 65.6175 13.9264 65.8037 13.2461C65.9971 12.5658 66.2656 11.932 66.6094 11.3447C66.9603 10.7575 67.3792 10.2204 67.8662 9.7334C68.3532 9.24642 68.8903 8.83105 69.4775 8.4873C70.0719 8.14355 70.7057 7.87858 71.3789 7.69238C72.0592 7.49902 72.7646 7.40234 73.4951 7.40234C74.2256 7.40234 74.931 7.49902 75.6113 7.69238C76.2917 7.87858 76.9255 8.14355 77.5127 8.4873C78.0999 8.83105 78.637 9.24642 79.124 9.7334C79.611 10.2204 80.0264 10.7575 80.3701 11.3447C80.7139 11.932 80.9788 12.5658 81.165 13.2461C81.3584 13.9264 81.4551 14.6318 81.4551 15.3623ZM78.3936 15.3623C78.3936 14.6891 78.2646 14.0553 78.0068 13.4609C77.749 12.8594 77.3981 12.3402 76.9541 11.9033C76.5173 11.4593 75.998 11.1084 75.3965 10.8506C74.8021 10.5928 74.1683 10.4639 73.4951 10.4639C72.8148 10.4639 72.1774 10.5928 71.583 10.8506C70.9886 11.1084 70.4694 11.4593 70.0254 11.9033C69.5814 12.3402 69.2305 12.8594 68.9727 13.4609C68.7148 14.0553 68.5859 14.6891 68.5859 15.3623C68.5859 16.0355 68.7148 16.6693 68.9727 17.2637C69.2305 17.8509 69.5814 18.3665 70.0254 18.8105C70.4694 19.2546 70.9886 19.6055 71.583 19.8633C72.1774 20.1211 72.8148 20.25 73.4951 20.25C74.1683 20.25 74.8021 20.1211 75.3965 19.8633C75.998 19.6055 76.5173 19.2546 76.9541 18.8105C77.3981 18.3665 77.749 17.8509 78.0068 17.2637C78.2646 16.6693 78.3936 16.0355 78.3936 15.3623ZM86.9014 23H83.9688V14.417H82.54V11.4951H83.9688V10.9473C83.9688 10.2383 84.1012 9.57227 84.3662 8.94922C84.6383 8.32617 85.0072 7.78548 85.4727 7.32715C85.9453 6.86165 86.4932 6.49642 87.1162 6.23145C87.7393 5.95931 88.4053 5.82324 89.1143 5.82324H91.3164V8.74512H89.1143C88.7992 8.74512 88.5055 8.80241 88.2334 8.91699C87.9684 9.02441 87.7357 9.17839 87.5352 9.37891C87.3418 9.57227 87.1878 9.80501 87.0732 10.0771C86.9587 10.3421 86.9014 10.6322 86.9014 10.9473V11.4951H90.5V14.417H86.9014V23ZM95.624 23H92.6914V14.417H91.2627V11.4951H92.6914V10.9473C92.6914 10.2383 92.8239 9.57227 93.0889 8.94922C93.361 8.32617 93.7298 7.78548 94.1953 7.32715C94.668 6.86165 95.2158 6.49642 95.8389 6.23145C96.4619 5.95931 97.1279 5.82324 97.8369 5.82324H100.039V8.74512H97.8369C97.5218 8.74512 97.2282 8.80241 96.9561 8.91699C96.6911 9.02441 96.4583 9.17839 96.2578 9.37891C96.0645 9.57227 95.9105 9.80501 95.7959 10.0771C95.6813 10.3421 95.624 10.6322 95.624 10.9473V11.4951H99.2227V14.417H95.624V23ZM104.508 8.36914C104.508 8.64128 104.454 8.89551 104.347 9.13184C104.246 9.36816 104.107 9.57585 103.928 9.75488C103.749 9.92676 103.537 10.0664 103.294 10.1738C103.058 10.2741 102.803 10.3242 102.531 10.3242C102.259 10.3242 102.001 10.2741 101.758 10.1738C101.521 10.0664 101.314 9.92676 101.135 9.75488C100.963 9.57585 100.823 9.36816 100.716 9.13184C100.616 8.89551 100.565 8.64128 100.565 8.36914C100.565 8.10417 100.616 7.85352 100.716 7.61719C100.823 7.3737 100.963 7.16602 101.135 6.99414C101.314 6.8151 101.521 6.67546 101.758 6.5752C102.001 6.46777 102.259 6.41406 102.531 6.41406C102.803 6.41406 103.058 6.46777 103.294 6.5752C103.537 6.67546 103.749 6.8151 103.928 6.99414C104.107 7.16602 104.246 7.3737 104.347 7.61719C104.454 7.85352 104.508 8.10417 104.508 8.36914ZM104.003 23H101.049V11.4951H104.003V23ZM116.303 13.7832L114.154 15.9424C114.047 15.6416 113.9 15.373 113.714 15.1367C113.528 14.8932 113.316 14.6891 113.08 14.5244C112.851 14.3597 112.6 14.2344 112.328 14.1484C112.056 14.0625 111.777 14.0195 111.49 14.0195C111.089 14.0195 110.71 14.1019 110.352 14.2666C110.001 14.4313 109.693 14.6641 109.428 14.9648C109.17 15.2585 108.966 15.6094 108.815 16.0176C108.665 16.4258 108.59 16.877 108.59 17.3711C108.59 17.7721 108.665 18.1481 108.815 18.499C108.966 18.8499 109.17 19.1579 109.428 19.4229C109.693 19.6878 110.001 19.8955 110.352 20.0459C110.71 20.1963 111.089 20.2715 111.49 20.2715C111.777 20.2715 112.052 20.2321 112.317 20.1533C112.582 20.0745 112.829 19.9635 113.059 19.8203C113.295 19.6699 113.503 19.4909 113.682 19.2832C113.868 19.0684 114.018 18.832 114.133 18.5742L116.281 20.7334C116.009 21.1201 115.694 21.4674 115.336 21.7754C114.985 22.0833 114.602 22.3447 114.187 22.5596C113.778 22.7744 113.345 22.9355 112.887 23.043C112.436 23.1576 111.97 23.2148 111.49 23.2148C110.681 23.2148 109.918 23.0645 109.202 22.7637C108.493 22.4557 107.87 22.0368 107.333 21.5068C106.803 20.9769 106.384 20.3574 106.076 19.6484C105.768 18.9395 105.614 18.1803 105.614 17.3711C105.614 16.4902 105.768 15.6667 106.076 14.9004C106.384 14.1341 106.803 13.4681 107.333 12.9023C107.87 12.3294 108.493 11.8783 109.202 11.5488C109.918 11.2194 110.681 11.0547 111.49 11.0547C111.97 11.0547 112.439 11.1156 112.897 11.2373C113.363 11.359 113.803 11.5381 114.219 11.7744C114.641 12.0036 115.028 12.2865 115.379 12.623C115.737 12.9596 116.045 13.3464 116.303 13.7832ZM122.146 20.1855C122.261 20.2214 122.376 20.2464 122.49 20.2607C122.605 20.2679 122.719 20.2715 122.834 20.2715C123.12 20.2715 123.396 20.2321 123.661 20.1533C123.926 20.0745 124.173 19.9635 124.402 19.8203C124.639 19.6699 124.846 19.4909 125.025 19.2832C125.212 19.0684 125.362 18.832 125.477 18.5742L127.625 20.7334C127.353 21.1201 127.038 21.4674 126.68 21.7754C126.329 22.0833 125.946 22.3447 125.53 22.5596C125.122 22.7744 124.689 22.9355 124.23 23.043C123.779 23.1576 123.314 23.2148 122.834 23.2148C122.025 23.2148 121.262 23.0645 120.546 22.7637C119.837 22.4629 119.214 22.0439 118.677 21.5068C118.147 20.9697 117.728 20.3324 117.42 19.5947C117.112 18.8499 116.958 18.0335 116.958 17.1455C116.958 16.236 117.112 15.4053 117.42 14.6533C117.728 13.9014 118.147 13.2604 118.677 12.7305C119.214 12.2005 119.837 11.7887 120.546 11.4951C121.262 11.2015 122.025 11.0547 122.834 11.0547C123.314 11.0547 123.783 11.112 124.241 11.2266C124.7 11.3411 125.133 11.5059 125.541 11.7207C125.956 11.9355 126.343 12.2005 126.701 12.5156C127.059 12.8236 127.374 13.1709 127.646 13.5576L122.146 20.1855ZM123.65 14.1377C123.514 14.0876 123.378 14.0553 123.242 14.041C123.113 14.0267 122.977 14.0195 122.834 14.0195C122.433 14.0195 122.053 14.0947 121.695 14.2451C121.344 14.3883 121.036 14.596 120.771 14.8682C120.514 15.1403 120.31 15.4697 120.159 15.8564C120.009 16.236 119.934 16.6657 119.934 17.1455C119.934 17.2529 119.937 17.3747 119.944 17.5107C119.959 17.6468 119.977 17.7865 119.998 17.9297C120.027 18.0658 120.059 18.1982 120.095 18.3271C120.131 18.4561 120.177 18.5706 120.234 18.6709L123.65 14.1377Z" fill="current"/>
<path fill-rule="evenodd" clip-rule="evenodd" d="M8 0C3.58172 0 0 3.58172 0 8V22C0 26.4183 3.58172 30 8 30H22C26.4183 30 30 26.4183 30 22V8C30 3.58172 26.4183 0 22 0H8ZM23.237 21.7869L22.187 23.6056L16.1155 17.0691L13.228 22.0704L14.2865 24.5002L13.499 25.8642L10.7935 23.0897L7.038 22.1339L7.82551 20.7699L10.459 20.4717L13.3465 15.4704L4.65 13.4806L5.7 11.6619L15.709 11.3784L18.5965 6.37715C19.0323 5.62241 20.0024 5.3702 20.7685 5.8125C21.5346 6.2548 21.8013 7.22109 21.3655 7.97583L18.478 12.9771L23.237 21.7869Z" fill="current"/>
</svg>
