<svg width="16" height="16" viewBox="0 0 19 20" fill="none" xmlns="http://www.w3.org/2000/svg">
<path d="M10.5882 0H8.23529V11.7647H10.5882V0ZM14.7765 2.87059L13.0706 4.57647C15.1059 5.81176 16.4706 8.03529 16.4706 10.5882C16.4706 14.4824 13.3059 17.6471 9.41177 17.6471C5.51765 17.6471 2.35294 14.4824 2.35294 10.5882C2.35294 8.03529 3.71765 5.81177 5.74118 4.56471L4.04706 2.87059C1.6 4.56471 0 7.38824 0 10.5882C0 15.7882 4.21176 20 9.41177 20C14.6118 20 18.8235 15.7882 18.8235 10.5882C18.8235 7.38824 17.2235 4.56471 14.7765 2.87059Z" fill="current"/>
</svg>
